<?xml version="1.0" standalone="no"?>
<!DOCTYPE svg PUBLIC "-//W3C//DTD SVG 20010904//EN"
 "http://www.w3.org/TR/2001/REC-SVG-20010904/DTD/svg10.dtd">
<svg version="1.0" xmlns="http://www.w3.org/2000/svg"
 width="144.000000pt" height="144.000000pt" viewBox="0 0 144.000000 144.000000"
 preserveAspectRatio="xMidYMid meet">
<metadata>
Created by potrace 1.11, written by Peter Selinger 2001-2013
</metadata>
<g transform="translate(0.000000,144.000000) scale(0.100000,-0.100000)"
fill="#000000" stroke="none">
<path d="M618 1394 c-157 -27 -281 -90 -397 -200 -130 -122 -210 -275 -219
-419 -20 -324 136 -588 422 -714 68 -30 70 -26 7 10 -174 100 -292 229 -352
383 -66 172 -53 372 36 531 120 215 378 349 639 332 108 -7 177 -26 268 -74
243 -127 379 -462 293 -720 -58 -170 -178 -293 -289 -293 -30 0 -45 7 -72 34
-19 19 -34 39 -34 45 0 6 40 11 108 13 l107 3 -3 43 c-6 114 -89 173 -208 148
-115 -24 -150 -211 -57 -308 61 -64 204 -75 310 -23 101 50 201 194 243 351
48 179 -6 429 -128 584 -117 149 -321 259 -510 276 -37 3 -71 7 -77 8 -5 2
-45 -3 -87 -10z m400 -992 c3 -18 -2 -20 -42 -20 -38 0 -46 3 -46 18 0 10 10
26 22 34 19 13 25 14 43 2 11 -7 21 -23 23 -34z"/>
<path d="M372 838 l3 -213 180 0 179 0 4 42 c2 25 -1 44 -9 49 -7 4 -59 7
-116 7 l-103 0 0 38 c0 44 -7 42 121 41 l77 -1 5 37 c2 20 1 40 -3 45 -3 4
-50 8 -103 9 l-97 1 0 31 0 31 108 0 107 0 0 45 0 45 -178 3 -177 2 2 -212z"/>
<path d="M913 1038 c-11 -15 -153 -391 -153 -407 0 -7 24 -10 67 -8 67 2 67 2
77 35 l9 32 74 0 c61 0 75 -3 79 -17 14 -44 20 -48 88 -49 44 -1 66 2 65 10 0
6 -35 101 -77 211 l-77 200 -71 3 c-49 2 -74 -1 -81 -10z m93 -170 c9 -29 19
-59 22 -65 3 -9 -8 -13 -37 -13 -23 0 -41 3 -41 7 0 11 32 123 36 123 1 0 10
-24 20 -52z"/>
<path d="M380 375 l0 -215 69 0 69 0 -1 82 c-1 65 3 84 14 85 22 4 33 -7 79
-90 l44 -77 74 0 c68 0 73 1 67 20 -14 45 -79 149 -99 158 -21 10 -20 10 5 20
65 26 89 113 49 179 -26 43 -56 50 -227 52 l-143 2 0 -216z m245 103 c25 -37
6 -53 -72 -62 -29 -3 -31 -1 -35 29 -6 49 -1 54 48 53 33 0 48 -6 59 -20z"/>
</g>
</svg>
